<svg xmlns="http://www.w3.org/2000/svg" viewBox="0 0 120 160">
  <defs>
    <linearGradient id="soil" x1="0" y1="0" x2="0" y2="1">
      <stop offset="0%" stop-color="#6D4C41"/>
      <stop offset="100%" stop-color="#4E342E"/>
    </linearGradient>
    <linearGradient id="carrotBody" x1="0" y1="0" x2="0" y2="1">
      <stop offset="0%" stop-color="#FF8F00"/>
      <stop offset="40%" stop-color="#F57C00"/>
      <stop offset="100%" stop-color="#E64A19"/>
    </linearGradient>
  </defs>
  <rect x="0" y="110" width="120" height="50" fill="url(#soil)"/>
  <circle cx="20" cy="122" r="1.5" fill="#8D6E63" opacity="0.5"/>
  <circle cx="88" cy="138" r="1.2" fill="#8D6E63" opacity="0.5"/>
  <!-- Full carrot root (pulled slightly out, angled) -->
  <!-- Root visible above soil -->
  <path d="M48 108 C50 104 55 100 60 98 C65 100 70 104 72 108 C70 110 65 112 60 113 C55 112 50 110 48 108Z" fill="url(#carrotBody)"/>
  <!-- Carrot below soil (hint) -->
  <path d="M53 113 C51 118 51 124 52 128 C53 132 57 138 60 142 C63 138 67 132 68 128 C69 124 69 118 67 113 C65 114 62 115 60 115 C58 115 55 114 53 113Z" fill="#BF360C" opacity="0.6"/>
  <!-- Root tip -->
  <path d="M57 140 Q60 145 63 140" fill="none" stroke="#BF360C" stroke-width="1.5"/>
  <!-- Horizontal root bands (growth rings) -->
  <path d="M52 117 Q60 115 68 117" stroke="#E64A19" stroke-width="0.8" fill="none" opacity="0.5"/>
  <path d="M52 122 Q60 120 68 122" stroke="#E64A19" stroke-width="0.8" fill="none" opacity="0.5"/>
  <path d="M52 127 Q60 125 68 127" stroke="#E64A19" stroke-width="0.8" fill="none" opacity="0.4"/>
  <!-- Lush feathery tops -->
  <path d="M60 100 Q42 86 28 68" stroke="#33691E" stroke-width="2.2" fill="none" stroke-linecap="round"/>
  <path d="M60 100 Q50 80 42 58" stroke="#33691E" stroke-width="2.2" fill="none" stroke-linecap="round"/>
  <path d="M60 100 Q60 78 60 52" stroke="#33691E" stroke-width="2.2" fill="none" stroke-linecap="round"/>
  <path d="M60 100 Q70 80 78 58" stroke="#33691E" stroke-width="2.2" fill="none" stroke-linecap="round"/>
  <path d="M60 100 Q78 86 92 68" stroke="#33691E" stroke-width="2.2" fill="none" stroke-linecap="round"/>
  <!-- Dense leaflets -->
  <path d="M28 68 Q23 62 22 56" stroke="#558B2F" stroke-width="1.2" fill="none"/>
  <path d="M38 80 Q33 74 32 68" stroke="#558B2F" stroke-width="1.2" fill="none"/>
  <path d="M42 58 Q38 50 37 44" stroke="#558B2F" stroke-width="1.2" fill="none"/>
  <path d="M52 72 Q48 64 47 58" stroke="#558B2F" stroke-width="1.2" fill="none"/>
  <path d="M60 68 Q56 60 55 54" stroke="#558B2F" stroke-width="1.2" fill="none"/>
  <path d="M60 68 Q64 60 65 54" stroke="#558B2F" stroke-width="1.2" fill="none"/>
  <path d="M92 68 Q97 62 98 56" stroke="#558B2F" stroke-width="1.2" fill="none"/>
  <path d="M82 80 Q87 74 88 68" stroke="#558B2F" stroke-width="1.2" fill="none"/>
  <path d="M78 58 Q82 50 83 44" stroke="#558B2F" stroke-width="1.2" fill="none"/>
  <path d="M68 72 Q72 64 73 58" stroke="#558B2F" stroke-width="1.2" fill="none"/>
  <!-- Root hairs hint -->
  <line x1="52" y1="119" x2="49" y2="121" stroke="#8D6E63" stroke-width="0.8" opacity="0.5"/>
  <line x1="68" y1="121" x2="71" y2="123" stroke="#8D6E63" stroke-width="0.8" opacity="0.5"/>
  <line x1="52" y1="126" x2="48" y2="128" stroke="#8D6E63" stroke-width="0.8" opacity="0.5"/>
  <line x1="68" y1="128" x2="72" y2="130" stroke="#8D6E63" stroke-width="0.8" opacity="0.5"/>
</svg>
