<svg xmlns="http://www.w3.org/2000/svg" viewBox="0 0 120 160">
  <defs><linearGradient id="soil" x1="0" y1="0" x2="0" y2="1"><stop offset="0%" stop-color="#6D4C41"/><stop offset="100%" stop-color="#4E342E"/></linearGradient></defs>
  <rect x="0" y="110" width="120" height="50" fill="url(#soil)"/>
  <line x1="60" y1="110" x2="60" y2="46" stroke="#388E3C" stroke-width="3"/>
  <path d="M60 95 C48 84 34 74 28 58 C24 46 34 38 44 48 C52 56 58 74 60 93Z" fill="#2E7D32"/>
  <path d="M60 95 C72 84 86 74 92 58 C96 46 86 38 76 48 C68 56 62 74 60 93Z" fill="#2E7D32"/>
  <path d="M60 76 C48 64 36 52 32 38 C28 26 38 20 48 30 C56 38 58 58 60 74Z" fill="#388E3C"/>
  <path d="M60 76 C72 64 84 52 88 38 C92 26 82 20 72 30 C64 38 62 58 60 74Z" fill="#388E3C"/>
  <!-- Flower bud at top -->
  <line x1="60" y1="58" x2="60" y2="46" stroke="#558B2F" stroke-width="2"/>
  <path d="M60 46 C57 42 54 38 56 34 C58 30 62 30 64 34 C66 38 63 42 60 46Z" fill="#FFF9C4"/>
  <circle cx="60" cy="32" r="5" fill="#FFF176"/>
  <circle cx="60" cy="32" r="2.5" fill="#F9A825"/>
</svg>
