<svg xmlns="http://www.w3.org/2000/svg" viewBox="0 0 120 160">
  <defs>
    <linearGradient id="soil" x1="0" y1="0" x2="0" y2="1">
      <stop offset="0%" stop-color="#6D4C41"/><stop offset="100%" stop-color="#4E342E"/>
    </linearGradient>
  </defs>
  <rect x="0" y="110" width="120" height="50" fill="url(#soil)"/>
  <circle cx="22" cy="120" r="1.5" fill="#8D6E63" opacity="0.6"/>
  <circle cx="90" cy="128" r="1.2" fill="#8D6E63" opacity="0.5"/>
  <!-- Full head of leafy greens -->
  <path d="M60 110 C36 102 16 84 14 62 C12 42 28 34 40 48 C50 60 56 84 60 108Z" fill="#1B5E20"/>
  <path d="M60 110 C84 102 104 84 106 62 C108 42 92 34 80 48 C70 60 64 84 60 108Z" fill="#1B5E20"/>
  <path d="M60 108 C40 90 30 64 36 42 C42 22 60 20 60 44 C60 68 60 90 60 108Z" fill="#2E7D32"/>
  <path d="M60 108 C80 90 90 64 84 42 C78 22 60 20 60 44 C60 68 60 90 60 108Z" fill="#2E7D32"/>
  <path d="M60 110 C34 110 12 100 10 84 C8 68 24 60 38 70 C50 78 58 96 60 110Z" fill="#388E3C"/>
  <path d="M60 110 C86 110 108 100 110 84 C112 68 96 60 82 70 C70 78 62 96 60 110Z" fill="#388E3C"/>
  <!-- Highlight on leaves -->
  <path d="M60 108 C46 92 32 70 24 50" stroke="#A5D6A7" stroke-width="0.9" fill="none" opacity="0.5"/>
  <path d="M60 108 C74 92 88 70 96 50" stroke="#A5D6A7" stroke-width="0.9" fill="none" opacity="0.5"/>
</svg>
