<svg xmlns="http://www.w3.org/2000/svg" viewBox="0 0 120 160">
  <defs>
    <linearGradient id="soil" x1="0" y1="0" x2="0" y2="1">
      <stop offset="0%" stop-color="#6D4C41"/><stop offset="100%" stop-color="#4E342E"/>
    </linearGradient>
  </defs>
  <rect x="0" y="110" width="120" height="50" fill="url(#soil)"/>
  <line x1="60" y1="110" x2="60" y2="92" stroke="#558B2F" stroke-width="2"/>
  <!-- Small rosette leaves -->
  <path d="M60 100 C52 94 46 88 50 82 C54 76 62 80 60 90Z" fill="#66BB6A"/>
  <path d="M60 100 C68 94 74 88 70 82 C66 76 58 80 60 90Z" fill="#66BB6A"/>
  <path d="M60 96 C54 88 52 80 58 76 C64 72 66 80 60 94Z" fill="#81C784"/>
  <path d="M60 96 C66 88 68 80 62 76 C56 72 54 80 60 94Z" fill="#81C784"/>
</svg>
