<svg xmlns="http://www.w3.org/2000/svg" viewBox="0 0 120 160">
  <defs>
    <linearGradient id="soil" x1="0" y1="0" x2="0" y2="1">
      <stop offset="0%" stop-color="#6D4C41"/>
      <stop offset="100%" stop-color="#4E342E"/>
    </linearGradient>
  </defs>
  <rect x="0" y="110" width="120" height="50" fill="url(#soil)"/>
  <circle cx="18" cy="120" r="1.5" fill="#8D6E63" opacity="0.5"/>
  <circle cx="90" cy="135" r="1.2" fill="#8D6E63" opacity="0.5"/>
  <!-- Tall stalk -->
  <line x1="60" y1="110" x2="60" y2="30" stroke="#558B2F" stroke-width="5" stroke-linecap="round"/>
  <!-- Node rings -->
  <ellipse cx="60" cy="90" rx="4" ry="2.5" fill="#33691E"/>
  <ellipse cx="60" cy="70" rx="4" ry="2.5" fill="#33691E"/>
  <ellipse cx="60" cy="50" rx="4" ry="2.5" fill="#33691E"/>
  <!-- Lower leaf left -->
  <path d="M60 95 C52 88 36 82 20 78 C14 76 12 70 18 68 C26 66 44 76 58 88Z" fill="#2E7D32"/>
  <path d="M60 93 C52 86 36 80 20 76" stroke="#66BB6A" stroke-width="1.2" fill="none" opacity="0.6"/>
  <!-- Lower leaf right -->
  <path d="M60 88 C68 81 84 75 100 71 C106 69 108 63 102 61 C94 59 76 69 62 82Z" fill="#2E7D32"/>
  <path d="M60 86 C68 79 84 73 100 69" stroke="#66BB6A" stroke-width="1.2" fill="none" opacity="0.6"/>
  <!-- Mid leaf left -->
  <path d="M60 72 C52 65 38 58 24 54 C18 52 16 46 22 44 C30 42 48 52 58 64Z" fill="#388E3C"/>
  <path d="M60 70 C52 63 38 56 24 52" stroke="#66BB6A" stroke-width="1" fill="none" opacity="0.6"/>
  <!-- Mid leaf right -->
  <path d="M60 65 C68 58 82 51 96 47 C102 45 104 39 98 37 C90 35 72 45 62 58Z" fill="#388E3C"/>
  <!-- Upper leaf left -->
  <path d="M60 50 C54 44 44 38 34 34 C29 31 27 26 32 24 C38 22 50 30 58 42Z" fill="#43A047"/>
  <!-- Upper leaf right -->
  <path d="M60 44 C66 38 76 32 86 28 C91 25 93 20 88 18 C82 16 70 24 62 36Z" fill="#43A047"/>
  <!-- Emerging rolled leaf at top -->
  <path d="M60 30 C60 24 60 18 60 12" stroke="#66BB6A" stroke-width="3" fill="none" stroke-linecap="round"/>
</svg>
