<svg xmlns="http://www.w3.org/2000/svg" viewBox="0 0 120 160">
  <defs>
    <linearGradient id="soil" x1="0" y1="0" x2="0" y2="1">
      <stop offset="0%" stop-color="#6D4C41"/>
      <stop offset="100%" stop-color="#4E342E"/>
    </linearGradient>
  </defs>
  <rect x="0" y="110" width="120" height="50" fill="url(#soil)"/>
  <circle cx="28" cy="128" r="1.5" fill="#8D6E63" opacity="0.5"/>
  <circle cx="82" cy="140" r="1.2" fill="#8D6E63" opacity="0.5"/>
  <!-- Maize kernel (dent corn shape) -->
  <path d="M55 120 Q60 114 65 120 Q63 124 60 123 Q57 124 55 120Z" fill="#FDD835"/>
  <path d="M56 119 Q60 115 64 119" fill="#F9A825" opacity="0.5"/>
  <!-- Radicle -->
  <path d="M60 113 Q61 108 60 103" stroke="#81C784" stroke-width="1.5" fill="none" stroke-linecap="round"/>
  <!-- Coleoptile shoot -->
  <path d="M60 103 Q60 98 60 94" stroke="#A5D6A7" stroke-width="2" fill="none" stroke-linecap="round"/>
  <!-- Coleoptile sheath (characteristic of grass) -->
  <path d="M58 103 C57 100 57 97 58 94 C59 92 61 92 62 94 C63 97 63 100 62 103Z" fill="#C8E6C9" opacity="0.7"/>
</svg>
