<svg xmlns="http://www.w3.org/2000/svg" viewBox="0 0 120 160">
  <defs>
    <linearGradient id="soil" x1="0" y1="0" x2="0" y2="1">
      <stop offset="0%" stop-color="#6D4C41"/>
      <stop offset="100%" stop-color="#4E342E"/>
    </linearGradient>
  </defs>
  <rect x="0" y="110" width="120" height="50" fill="url(#soil)"/>
  <!-- Stems -->
  <line x1="44" y1="110" x2="34" y2="62" stroke="#558B2F" stroke-width="3" stroke-linecap="round"/>
  <line x1="60" y1="110" x2="60" y2="56" stroke="#558B2F" stroke-width="3.5" stroke-linecap="round"/>
  <line x1="76" y1="110" x2="86" y2="62" stroke="#558B2F" stroke-width="3" stroke-linecap="round"/>
  <!-- Dense foliage -->
  <path d="M34 86 C18 78 4 70 -4 60 C-8 55 -4 48 4 50 C16 53 30 64 34 78Z" fill="#2E7D32"/>
  <path d="M34 70 C22 62 10 52 4 42 C0 37 4 31 10 33 C20 36 32 48 34 62Z" fill="#33691E"/>
  <path d="M60 80 C44 72 26 64 14 54 C8 50 8 43 14 42 C24 40 44 50 60 64Z" fill="#2E7D32"/>
  <path d="M60 80 C76 72 94 64 106 54 C112 50 112 43 106 42 C96 40 76 50 60 64Z" fill="#2E7D32"/>
  <path d="M86 86 C102 78 116 70 124 60 C128 55 124 48 116 50 C104 53 90 64 86 78Z" fill="#2E7D32"/>
  <path d="M86 70 C98 62 110 52 116 42 C120 37 116 31 110 33 C100 36 88 48 86 62Z" fill="#33691E"/>
  <!-- White/purple potato flowers -->
  <!-- Flower 1 (white with purple veins) -->
  <g transform="translate(34,56)">
    <path d="M0,-10 C4,-8 6,-4 4,0 C2,4 -2,4 -4,0 C-6,-4 -4,-8 0,-10Z" fill="#EDE7F6"/>
    <path d="M-10,0 C-8,-4 -4,-6 0,-4 C4,-2 4,2 0,4 C-4,6 -8,4 -10,0Z" fill="#EDE7F6"/>
    <path d="M0,10 C-4,8 -6,4 -4,0 C-2,-4 2,-4 4,0 C6,4 4,8 0,10Z" fill="#EDE7F6"/>
    <path d="M10,0 C8,4 4,6 0,4 C-4,2 -4,-2 0,-4 C4,-6 8,-4 10,0Z" fill="#EDE7F6"/>
    <path d="M-7,-7 C-4,-8 -2,-6 0,-4" stroke="#7C4DFF" stroke-width="0.5" fill="none"/>
    <circle r="3" fill="#FDD835"/>
    <circle r="1.5" fill="#F57F17"/>
  </g>
  <!-- Flower 2 -->
  <g transform="translate(60,50)">
    <path d="M0,-9 C3,-7 5,-3 3,1 C1,5 -3,5 -5,1 C-7,-3 -5,-7 0,-9Z" fill="#EDE7F6"/>
    <path d="M-9,0 C-7,-3 -3,-5 1,-3 C5,-1 5,3 1,5 C-3,7 -7,5 -9,0Z" fill="#EDE7F6"/>
    <path d="M0,9 C-4,7 -6,3 -4,-1 C-2,-5 2,-5 4,-1 C6,3 4,7 0,9Z" fill="#EDE7F6"/>
    <path d="M9,0 C7,4 3,6 -1,4 C-5,2 -5,-2 -1,-4 C3,-6 7,-4 9,0Z" fill="#EDE7F6"/>
    <circle r="3.5" fill="#FDD835"/>
    <circle r="1.5" fill="#F57F17"/>
  </g>
  <!-- Flower 3 -->
  <g transform="translate(86,56)">
    <path d="M0,-9 C3,-7 5,-3 3,1 C1,5 -3,5 -5,1 C-7,-3 -5,-7 0,-9Z" fill="#EDE7F6"/>
    <path d="M-9,0 C-7,-3 -3,-5 1,-3 C5,-1 5,3 1,5 C-3,7 -7,5 -9,0Z" fill="#EDE7F6"/>
    <path d="M0,9 C-4,7 -6,3 -4,-1 C-2,-5 2,-5 4,-1 C6,3 4,7 0,9Z" fill="#EDE7F6"/>
    <path d="M9,0 C7,4 3,6 -1,4 C-5,2 -5,-2 -1,-4 C3,-6 7,-4 9,0Z" fill="#EDE7F6"/>
    <circle r="3" fill="#FDD835"/>
  </g>
  <!-- Tubers forming underground (hint) -->
  <ellipse cx="40" cy="118" rx="8" ry="5" fill="#BFA060" opacity="0.5"/>
  <ellipse cx="76" cy="120" rx="7" ry="4.5" fill="#BFA060" opacity="0.5"/>
</svg>
