<svg xmlns="http://www.w3.org/2000/svg" viewBox="0 0 120 160">
  <defs>
    <linearGradient id="soil" x1="0" y1="0" x2="0" y2="1">
      <stop offset="0%" stop-color="#6D4C41"/>
      <stop offset="100%" stop-color="#4E342E"/>
    </linearGradient>
  </defs>
  <rect x="0" y="110" width="120" height="50" fill="url(#soil)"/>
  <!-- Multiple stems creating bushy habit -->
  <line x1="46" y1="110" x2="38" y2="68" stroke="#558B2F" stroke-width="3" stroke-linecap="round"/>
  <line x1="55" y1="110" x2="50" y2="60" stroke="#558B2F" stroke-width="3" stroke-linecap="round"/>
  <line x1="65" y1="110" x2="70" y2="60" stroke="#558B2F" stroke-width="3" stroke-linecap="round"/>
  <line x1="74" y1="110" x2="82" y2="68" stroke="#558B2F" stroke-width="3" stroke-linecap="round"/>
  <!-- Pinnate compound leaves -->
  <!-- Left bush -->
  <path d="M38 84 C26 78 12 72 4 64 C0 60 2 53 8 54 C18 55 32 64 38 76Z" fill="#2E7D32"/>
  <path d="M38 68 C30 62 20 54 14 46 C10 42 12 36 18 38 C26 41 36 52 38 62Z" fill="#33691E"/>
  <path d="M38 68 C44 60 48 52 50 44" stroke="#558B2F" stroke-width="2" fill="none"/>
  <!-- Right bush -->
  <path d="M82 84 C94 78 108 72 116 64 C120 60 118 53 112 54 C102 55 88 64 82 76Z" fill="#2E7D32"/>
  <path d="M82 68 C90 62 100 54 106 46 C110 42 108 36 102 38 C94 41 84 52 82 62Z" fill="#33691E"/>
  <!-- Center leaves -->
  <path d="M50 76 C38 70 22 64 10 58 C4 55 4 48 10 47 C20 46 38 54 50 68Z" fill="#2E7D32"/>
  <path d="M70 76 C82 70 98 64 110 58 C116 55 116 48 110 47 C100 46 82 54 70 68Z" fill="#2E7D32"/>
  <path d="M50 60 C42 54 30 46 22 40 C16 36 16 29 22 29 C32 28 46 38 50 52Z" fill="#388E3C"/>
  <path d="M70 60 C78 54 90 46 98 40 C104 36 104 29 98 29 C88 28 74 38 70 52Z" fill="#388E3C"/>
  <!-- Leaf midribs -->
  <path d="M38 82 C28 74 12 66 4 58" stroke="#4CAF50" stroke-width="0.8" fill="none" opacity="0.5"/>
  <path d="M50 74 C40 66 24 58 12 52" stroke="#4CAF50" stroke-width="0.8" fill="none" opacity="0.5"/>
</svg>
