<svg xmlns="http://www.w3.org/2000/svg" viewBox="0 0 120 160">
  <defs>
    <linearGradient id="soil" x1="0" y1="0" x2="0" y2="1">
      <stop offset="0%" stop-color="#6D4C41"/>
      <stop offset="100%" stop-color="#4E342E"/>
    </linearGradient>
  </defs>
  <rect x="0" y="110" width="120" height="50" fill="url(#soil)"/>
  <!-- Stems from soil -->
  <line x1="54" y1="110" x2="48" y2="82" stroke="#558B2F" stroke-width="2.5" stroke-linecap="round"/>
  <line x1="60" y1="110" x2="60" y2="78" stroke="#558B2F" stroke-width="2.8" stroke-linecap="round"/>
  <line x1="66" y1="110" x2="72" y2="82" stroke="#558B2F" stroke-width="2.5" stroke-linecap="round"/>
  <!-- Compound leaves — potato leaves are pinnate -->
  <!-- Left stem leaves -->
  <path d="M48 90 C42 86 32 84 24 80 C20 78 20 73 25 72 C32 71 44 76 48 84Z" fill="#388E3C"/>
  <path d="M48 83 C44 78 38 72 34 66 C32 62 36 58 40 60 C44 63 48 70 48 76Z" fill="#2E7D32"/>
  <!-- Center stem leaves -->
  <path d="M60 92 C50 88 36 84 26 78 C20 75 20 68 26 67 C36 65 52 72 60 84Z" fill="#388E3C"/>
  <path d="M60 92 C70 88 84 84 94 78 C100 75 100 68 94 67 C84 65 68 72 60 84Z" fill="#388E3C"/>
  <path d="M60 78 C54 72 44 66 38 60 C34 56 36 50 41 52 C48 55 56 64 60 72Z" fill="#2E7D32"/>
  <path d="M60 78 C66 72 76 66 82 60 C86 56 84 50 79 52 C72 55 64 64 60 72Z" fill="#2E7D32"/>
</svg>
