<svg xmlns="http://www.w3.org/2000/svg" viewBox="0 0 120 160">
  <defs>
    <linearGradient id="soil" x1="0" y1="0" x2="0" y2="1">
      <stop offset="0%" stop-color="#6D4C41"/>
      <stop offset="100%" stop-color="#4E342E"/>
    </linearGradient>
  </defs>
  <rect x="0" y="110" width="120" height="50" fill="url(#soil)"/>
  <circle cx="20" cy="122" r="1.2" fill="#8D6E63" opacity="0.5"/>
  <circle cx="85" cy="135" r="1.5" fill="#8D6E63" opacity="0.5"/>
  <!-- Stem -->
  <line x1="60" y1="110" x2="60" y2="78" stroke="#388E3C" stroke-width="2" stroke-linecap="round"/>
  <!-- Cotyledons (oblong, rounded) -->
  <ellipse cx="48" cy="82" rx="10" ry="5" fill="#66BB6A" transform="rotate(-15,48,82)"/>
  <ellipse cx="72" cy="82" rx="10" ry="5" fill="#66BB6A" transform="rotate(15,72,82)"/>
  <!-- Midrib -->
  <line x1="43" y1="84" x2="53" y2="80" stroke="#A5D6A7" stroke-width="0.8" opacity="0.7"/>
  <line x1="67" y1="84" x2="77" y2="80" stroke="#A5D6A7" stroke-width="0.8" opacity="0.7"/>
  <!-- First true leaves (serrated tomato leaf shape) -->
  <path d="M60 78 C55 72 44 68 42 62 C40 58 46 54 50 58 C54 62 58 70 60 74 C62 70 66 62 70 58 C74 54 80 58 78 62 C76 68 65 72 60 78Z" fill="#2E7D32"/>
  <line x1="60" y1="76" x2="60" y2="63" stroke="#66BB6A" stroke-width="0.8" opacity="0.7"/>
</svg>
