<svg xmlns="http://www.w3.org/2000/svg" viewBox="0 0 120 160">
  <defs>
    <linearGradient id="soil" x1="0" y1="0" x2="0" y2="1">
      <stop offset="0%" stop-color="#6D4C41"/>
      <stop offset="100%" stop-color="#4E342E"/>
    </linearGradient>
  </defs>
  <rect x="0" y="110" width="120" height="50" fill="url(#soil)"/>
  <circle cx="20" cy="122" r="1.5" fill="#8D6E63" opacity="0.5"/>
  <circle cx="88" cy="138" r="1.2" fill="#8D6E63" opacity="0.5"/>
  <!-- Main stem -->
  <path d="M60 110 C60 95 58 80 60 48" stroke="#33691E" stroke-width="3.5" fill="none" stroke-linecap="round"/>
  <!-- Compound leaves -->
  <path d="M58 100 C48 92 34 86 24 76 C20 72 24 66 30 70 C40 76 52 88 58 96Z" fill="#2E7D32"/>
  <path d="M62 100 C72 92 86 86 96 76 C100 72 96 66 90 70 C80 76 68 88 62 96Z" fill="#2E7D32"/>
  <path d="M57 82 C47 74 34 68 26 58 C22 54 26 48 32 52 C41 57 53 68 57 78Z" fill="#33691E"/>
  <path d="M63 82 C73 74 86 68 94 58 C98 54 94 48 88 52 C79 57 67 68 63 78Z" fill="#33691E"/>
  <!-- Flower cluster (yellow star flowers) -->
  <!-- Flower 1 -->
  <g transform="translate(38,58)">
    <circle r="4" fill="#FDD835"/>
    <path d="M0,-7 L1.5,-4 L4,-6 L2.5,-3 L6,0 L3,0.5 L4,4 L1.5,2 L0,5 L-1.5,2 L-4,4 L-3,0.5 L-6,0 L-2.5,-3 L-4,-6 L-1.5,-4 Z" fill="#FDD835"/>
    <circle r="2" fill="#F57F17"/>
  </g>
  <!-- Flower 2 -->
  <g transform="translate(82,52)">
    <path d="M0,-7 L1.5,-4 L4,-6 L2.5,-3 L6,0 L3,0.5 L4,4 L1.5,2 L0,5 L-1.5,2 L-4,4 L-3,0.5 L-6,0 L-2.5,-3 L-4,-6 L-1.5,-4 Z" fill="#FDD835"/>
    <circle r="2" fill="#F57F17"/>
  </g>
  <!-- Flower 3 top -->
  <g transform="translate(60,42)">
    <path d="M0,-7 L1.5,-4 L4,-6 L2.5,-3 L6,0 L3,0.5 L4,4 L1.5,2 L0,5 L-1.5,2 L-4,4 L-3,0.5 L-6,0 L-2.5,-3 L-4,-6 L-1.5,-4 Z" fill="#FDD835"/>
    <circle r="2.5" fill="#F57F17"/>
  </g>
  <!-- Small green tomatoes forming -->
  <circle cx="32" cy="68" r="5" fill="#558B2F"/>
  <path d="M30 63 Q32 60 34 63" stroke="#1B5E20" stroke-width="1" fill="none"/>
</svg>
