<svg xmlns="http://www.w3.org/2000/svg" viewBox="0 0 120 160">
  <defs>
    <linearGradient id="soil" x1="0" y1="0" x2="0" y2="1">
      <stop offset="0%" stop-color="#6D4C41"/>
      <stop offset="100%" stop-color="#4E342E"/>
    </linearGradient>
  </defs>
  <rect x="0" y="110" width="120" height="50" fill="url(#soil)"/>
  <circle cx="18" cy="120" r="1.5" fill="#8D6E63" opacity="0.5"/>
  <circle cx="78" cy="138" r="1.2" fill="#8D6E63" opacity="0.5"/>
  <!-- Main stem -->
  <path d="M60 110 C60 95 58 80 60 55" stroke="#33691E" stroke-width="3.5" fill="none" stroke-linecap="round"/>
  <!-- Compound leaves — left set -->
  <!-- Leaf 1 left -->
  <path d="M58 98 C50 90 38 86 30 78 C26 74 30 68 36 72 C44 76 54 86 58 94Z" fill="#2E7D32"/>
  <path d="M58 96 C50 88 36 84 30 76" stroke="#66BB6A" stroke-width="0.9" fill="none" opacity="0.6"/>
  <!-- Leaf 1 right -->
  <path d="M62 98 C70 90 82 86 90 78 C94 74 90 68 84 72 C76 76 66 86 62 94Z" fill="#2E7D32"/>
  <path d="M62 96 C70 88 84 84 90 76" stroke="#66BB6A" stroke-width="0.9" fill="none" opacity="0.6"/>
  <!-- Leaf 2 left -->
  <path d="M57 80 C48 73 36 68 28 60 C24 56 28 50 34 54 C42 58 52 68 57 76Z" fill="#33691E"/>
  <path d="M57 78 C48 71 34 66 28 58" stroke="#66BB6A" stroke-width="0.8" fill="none" opacity="0.6"/>
  <!-- Leaf 2 right -->
  <path d="M63 80 C72 73 84 68 92 60 C96 56 92 50 86 54 C78 58 68 68 63 76Z" fill="#33691E"/>
  <!-- Leaf 3 left (upper) -->
  <path d="M57 64 C50 58 42 52 36 46 C33 42 36 38 41 41 C48 45 55 54 57 60Z" fill="#388E3C"/>
  <!-- Leaf 3 right -->
  <path d="M63 64 C70 58 78 52 84 46 C87 42 84 38 79 41 C72 45 65 54 63 60Z" fill="#388E3C"/>
  <!-- Terminal leaflet -->
  <path d="M60 55 C54 48 52 40 56 34 C58 31 62 31 64 34 C68 40 66 48 60 55Z" fill="#2E7D32"/>
  <line x1="60" y1="53" x2="60" y2="36" stroke="#66BB6A" stroke-width="0.8" opacity="0.6"/>
</svg>
