<svg xmlns="http://www.w3.org/2000/svg" viewBox="0 0 120 160">
  <defs>
    <linearGradient id="soil" x1="0" y1="0" x2="0" y2="1">
      <stop offset="0%" stop-color="#6D4C41"/>
      <stop offset="100%" stop-color="#4E342E"/>
    </linearGradient>
  </defs>
  <rect x="0" y="110" width="120" height="50" fill="url(#soil)"/>
  <!-- 5 tillers, full canopy -->
  <!-- Far left -->
  <path d="M32 110 Q24 88 18 62" stroke="#388E3C" stroke-width="2" fill="none" stroke-linecap="round"/>
  <path d="M22 74 Q16 66 12 58" stroke="#388E3C" stroke-width="1.2" fill="none"/>
  <path d="M26 86 Q20 78 18 70" stroke="#388E3C" stroke-width="1.2" fill="none"/>
  <!-- Left -->
  <path d="M46 110 Q42 90 38 66" stroke="#388E3C" stroke-width="2.2" fill="none" stroke-linecap="round"/>
  <path d="M40 76 Q34 68 30 60" stroke="#388E3C" stroke-width="1.3" fill="none"/>
  <path d="M44 90 Q38 82 36 74" stroke="#388E3C" stroke-width="1.3" fill="none"/>
  <!-- Center -->
  <path d="M60 110 Q60 88 60 56" stroke="#388E3C" stroke-width="2.5" fill="none" stroke-linecap="round"/>
  <path d="M60 80 Q52 72 46 62" stroke="#388E3C" stroke-width="1.4" fill="none"/>
  <path d="M60 80 Q68 72 74 62" stroke="#388E3C" stroke-width="1.4" fill="none"/>
  <path d="M60 94 Q54 86 50 78" stroke="#388E3C" stroke-width="1.4" fill="none"/>
  <path d="M60 94 Q66 86 70 78" stroke="#388E3C" stroke-width="1.4" fill="none"/>
  <!-- Right -->
  <path d="M74 110 Q78 90 82 66" stroke="#388E3C" stroke-width="2.2" fill="none" stroke-linecap="round"/>
  <path d="M80 76 Q86 68 90 60" stroke="#388E3C" stroke-width="1.3" fill="none"/>
  <path d="M76 90 Q82 82 84 74" stroke="#388E3C" stroke-width="1.3" fill="none"/>
  <!-- Far right -->
  <path d="M88 110 Q96 88 102 62" stroke="#388E3C" stroke-width="2" fill="none" stroke-linecap="round"/>
  <path d="M98 74 Q104 66 108 58" stroke="#388E3C" stroke-width="1.2" fill="none"/>
  <path d="M94 86 Q100 78 102 70" stroke="#388E3C" stroke-width="1.2" fill="none"/>
</svg>
